<svg width="24" height="20" viewBox="0 0 24 20" fill="none" xmlns="http://www.w3.org/2000/svg">
<path d="M21.499 10.9859L1.49902 10.9859C1.23381 10.9859 0.979452 10.882 0.791916 10.6971C0.60438 10.5122 0.499024 10.2615 0.499024 10C0.499024 9.73852 0.60438 9.48775 0.791916 9.30286C0.979452 9.11797 1.23381 9.0141 1.49902 9.0141L21.499 9.0141C21.7642 9.0141 22.0186 9.11797 22.2061 9.30286C22.3937 9.48775 22.499 9.73852 22.499 10C22.499 10.2615 22.3937 10.5122 22.2061 10.6971C22.0186 10.882 21.7642 10.9859 21.499 10.9859Z" fill="white"/>
<path d="M21.0852 9.99997L12.7912 1.82488C12.6034 1.63975 12.4979 1.38867 12.4979 1.12686C12.4979 0.865052 12.6034 0.613967 12.7912 0.428842C12.979 0.243714 13.2336 0.139712 13.4992 0.139712C13.7647 0.139712 14.0194 0.243714 14.2072 0.428842L23.2072 9.30195C23.3003 9.39353 23.3742 9.50233 23.4246 9.62211C23.475 9.74189 23.501 9.87029 23.501 9.99997C23.501 10.1297 23.475 10.2581 23.4246 10.3778C23.3742 10.4976 23.3003 10.6064 23.2072 10.698L14.2072 19.5711C14.0194 19.7562 13.7647 19.8602 13.4992 19.8602C13.2336 19.8602 12.979 19.7562 12.7912 19.5711C12.6034 19.386 12.4979 19.1349 12.4979 18.8731C12.4979 18.6113 12.6034 18.3602 12.7912 18.1751L21.0852 9.99997Z" fill="white"/>
</svg>
