<svg width="23" height="21" viewBox="0 0 23 21" fill="none" xmlns="http://www.w3.org/2000/svg">
<path d="M2.00195 9.51404H22.002C22.2672 9.51404 22.5215 9.61791 22.7091 9.8028C22.8966 9.98769 23.002 10.2385 23.002 10.4999C23.002 10.7614 22.8966 11.0122 22.7091 11.1971C22.5215 11.382 22.2672 11.4858 22.002 11.4858H2.00195C1.73674 11.4858 1.48238 11.382 1.29485 11.1971C1.10731 11.0122 1.00195 10.7614 1.00195 10.4999C1.00195 10.2385 1.10731 9.98769 1.29485 9.8028C1.48238 9.61791 1.73674 9.51404 2.00195 9.51404Z" fill="white"/>
<path d="M2.41579 10.5L10.7098 18.6751C10.8976 18.8602 11.003 19.1113 11.003 19.3731C11.003 19.6349 10.8976 19.886 10.7098 20.0712C10.522 20.2563 10.2673 20.3603 10.0018 20.3603C9.73624 20.3603 9.48156 20.2563 9.29379 20.0712L0.293787 11.198C0.200661 11.1065 0.126776 10.9977 0.0763626 10.8779C0.0259497 10.7581 0 10.6297 0 10.5C0 10.3703 0.0259497 10.2419 0.0763626 10.1222C0.126776 10.0024 0.200661 9.89359 0.293787 9.80201L9.29379 0.928899C9.48156 0.743773 9.73624 0.639771 10.0018 0.639771C10.2673 0.639771 10.522 0.743773 10.7098 0.928899C10.8976 1.11402 11.003 1.36511 11.003 1.62692C11.003 1.88872 10.8976 2.13981 10.7098 2.32494L2.41579 10.5Z" fill="white"/>
</svg>
