<svg width="21" height="20" viewBox="0 0 21 20" fill="none" xmlns="http://www.w3.org/2000/svg">
<g clip-path="url(#clip0_3752_24011)">
<path d="M18.4167 3.33337H16.6111V4.44449H18.2778V16.6667H2.72222V4.44449H4.38888V3.33337H2.58333C2.45346 3.33554 2.32529 3.36328 2.20614 3.41499C2.08699 3.4667 1.9792 3.54138 1.88892 3.63476C1.79863 3.72814 1.72763 3.83838 1.67996 3.95921C1.6323 4.08003 1.6089 4.20906 1.6111 4.33893V16.7723C1.6089 16.9021 1.6323 17.0312 1.67996 17.152C1.72763 17.2728 1.79863 17.3831 1.88892 17.4764C1.9792 17.5698 2.08699 17.6445 2.20614 17.6962C2.32529 17.7479 2.45346 17.7756 2.58333 17.7778H18.4167C18.5465 17.7756 18.6747 17.7479 18.7938 17.6962C18.913 17.6445 19.0208 17.5698 19.1111 17.4764C19.2014 17.3831 19.2724 17.2728 19.32 17.152C19.3677 17.0312 19.3911 16.9021 19.3889 16.7723V4.33893C19.3911 4.20906 19.3677 4.08003 19.32 3.95921C19.2724 3.83838 19.2014 3.72814 19.1111 3.63476C19.0208 3.54138 18.913 3.4667 18.7938 3.41499C18.6747 3.36328 18.5465 3.33554 18.4167 3.33337Z" fill="white"/>
<path d="M4.94446 7.77783H6.05557V8.88894H4.94446V7.77783Z" fill="white"/>
<path d="M8.27777 7.77783H9.38888V8.88894H8.27777V7.77783Z" fill="white"/>
<path d="M11.6111 7.77783H12.7222V8.88894H11.6111V7.77783Z" fill="white"/>
<path d="M14.9445 7.77783H16.0556V8.88894H14.9445V7.77783Z" fill="white"/>
<path d="M4.94446 10.5555H6.05557V11.6667H4.94446V10.5555Z" fill="white"/>
<path d="M8.27777 10.5555H9.38888V11.6667H8.27777V10.5555Z" fill="white"/>
<path d="M11.6111 10.5555H12.7222V11.6667H11.6111V10.5555Z" fill="white"/>
<path d="M14.9445 10.5555H16.0556V11.6667H14.9445V10.5555Z" fill="white"/>
<path d="M4.94446 13.3334H6.05557V14.4445H4.94446V13.3334Z" fill="white"/>
<path d="M8.27777 13.3334H9.38888V14.4445H8.27777V13.3334Z" fill="white"/>
<path d="M11.6111 13.3334H12.7222V14.4445H11.6111V13.3334Z" fill="white"/>
<path d="M14.9445 13.3334H16.0556V14.4445H14.9445V13.3334Z" fill="white"/>
<path d="M6.05556 5.55553C6.2029 5.55553 6.34421 5.497 6.44839 5.39281C6.55258 5.28862 6.61111 5.14732 6.61111 4.99997V1.66664C6.61111 1.5193 6.55258 1.37799 6.44839 1.2738C6.34421 1.16962 6.2029 1.11108 6.05556 1.11108C5.90821 1.11108 5.76691 1.16962 5.66272 1.2738C5.55853 1.37799 5.5 1.5193 5.5 1.66664V4.99997C5.5 5.14732 5.55853 5.28862 5.66272 5.39281C5.76691 5.497 5.90821 5.55553 6.05556 5.55553Z" fill="white"/>
<path d="M14.9444 5.55553C15.0918 5.55553 15.2331 5.497 15.3373 5.39281C15.4415 5.28862 15.5 5.14732 15.5 4.99997V1.66664C15.5 1.5193 15.4415 1.37799 15.3373 1.2738C15.2331 1.16962 15.0918 1.11108 14.9444 1.11108C14.7971 1.11108 14.6558 1.16962 14.5516 1.2738C14.4474 1.37799 14.3889 1.5193 14.3889 1.66664V4.99997C14.3889 5.14732 14.4474 5.28862 14.5516 5.39281C14.6558 5.497 14.7971 5.55553 14.9444 5.55553Z" fill="white"/>
<path d="M7.72223 3.33337H13.2778V4.44449H7.72223V3.33337Z" fill="white"/>
</g>
<defs>
<clipPath id="clip0_3752_24011">
<rect width="20" height="20" fill="white" transform="translate(0.5)"/>
</clipPath>
</defs>
</svg>
