<svg width="16" height="15" viewBox="0 0 16 15" fill="none" xmlns="http://www.w3.org/2000/svg">
<path d="M8 12.1875C9.2432 12.1875 10.4355 11.6936 11.3146 10.8146C12.1936 9.93549 12.6875 8.7432 12.6875 7.5C12.6875 6.2568 12.1936 5.06451 11.3146 4.18544C10.4355 3.30636 9.2432 2.8125 8 2.8125C6.7568 2.8125 5.56451 3.30636 4.68544 4.18544C3.80636 5.06451 3.3125 6.2568 3.3125 7.5C3.3125 8.7432 3.80636 9.93549 4.68544 10.8146C5.56451 11.6936 6.7568 12.1875 8 12.1875ZM8 13.125C7.26131 13.125 6.52986 12.9795 5.84741 12.6968C5.16495 12.4141 4.54485 11.9998 4.02252 11.4775C3.50019 10.9551 3.08586 10.3351 2.80318 9.65259C2.52049 8.97014 2.375 8.23869 2.375 7.5C2.375 6.76131 2.52049 6.02986 2.80318 5.34741C3.08586 4.66495 3.50019 4.04485 4.02252 3.52252C4.54485 3.00019 5.16495 2.58586 5.84741 2.30318C6.52986 2.02049 7.26131 1.875 8 1.875C9.49184 1.875 10.9226 2.46763 11.9775 3.52252C13.0324 4.57742 13.625 6.00816 13.625 7.5C13.625 8.99184 13.0324 10.4226 11.9775 11.4775C10.9226 12.5324 9.49184 13.125 8 13.125Z" fill="black"/>
<path d="M4.78139 12.0788L5.59327 12.5475L4.89014 13.7653C4.85959 13.8191 4.81871 13.8662 4.76985 13.9041C4.72099 13.942 4.66513 13.9698 4.60547 13.986C4.54581 14.0022 4.48353 14.0065 4.42223 13.9985C4.36093 13.9905 4.30181 13.9705 4.24827 13.9396C4.19473 13.9087 4.14784 13.8675 4.11029 13.8184C4.07274 13.7693 4.04527 13.7132 4.02947 13.6535C4.01367 13.5937 4.00985 13.5314 4.01822 13.4701C4.0266 13.4089 4.047 13.3499 4.07827 13.2966L4.78139 12.0788ZM11.2183 12.0788L10.4064 12.5475L11.1095 13.7653C11.1401 13.8191 11.181 13.8662 11.2298 13.9041C11.2787 13.942 11.3345 13.9698 11.3942 13.986C11.4539 14.0022 11.5161 14.0065 11.5774 13.9985C11.6387 13.9905 11.6979 13.9705 11.7514 13.9396C11.8049 13.9087 11.8518 13.8675 11.8894 13.8184C11.9269 13.7693 11.9544 13.7132 11.9702 13.6535C11.986 13.5937 11.9898 13.5314 11.9814 13.4701C11.9731 13.4089 11.9527 13.3499 11.9214 13.2966L11.2183 12.0788ZM7.99983 7.50002H10.3436C10.4679 7.50002 10.5871 7.54941 10.675 7.63731C10.7629 7.72522 10.8123 7.84445 10.8123 7.96877C10.8123 8.09309 10.7629 8.21232 10.675 8.30023C10.5871 8.38813 10.4679 8.43752 10.3436 8.43752H7.53108C7.40676 8.43752 7.28753 8.38813 7.19962 8.30023C7.11172 8.21232 7.06233 8.09309 7.06233 7.96877V4.68752C7.06233 4.5632 7.11172 4.44397 7.19962 4.35606C7.28753 4.26816 7.40676 4.21877 7.53108 4.21877C7.6554 4.21877 7.77463 4.26816 7.86254 4.35606C7.95044 4.44397 7.99983 4.5632 7.99983 4.68752V7.50002ZM1.82546 4.57408C1.5263 4.12329 1.39232 3.58288 1.44624 3.04455C1.50016 2.50622 1.73867 2.00313 2.12128 1.62062C2.5039 1.23811 3.00706 0.999758 3.54541 0.945993C4.08376 0.892228 4.62412 1.02637 5.07483 1.32565L4.38858 2.0119C4.12617 1.88657 3.83135 1.84568 3.54474 1.89485C3.25812 1.94403 2.9938 2.08085 2.78817 2.28648C2.58254 2.49211 2.44571 2.75644 2.39654 3.04305C2.34736 3.32967 2.38825 3.62448 2.51358 3.8869L1.82639 4.57408H1.82546ZM14.0608 4.57408C14.3595 4.12336 14.4932 3.5832 14.4392 3.04517C14.3852 2.50714 14.1468 2.00433 13.7644 1.62197C13.3821 1.23961 12.8793 1.00123 12.3412 0.94722C11.8032 0.893214 11.2631 1.02691 10.8123 1.32565L11.4986 2.0119C11.761 1.88657 12.0558 1.84568 12.3424 1.89485C12.629 1.94403 12.8934 2.08085 13.099 2.28648C13.3046 2.49211 13.4414 2.75644 13.4906 3.04305C13.5398 3.32967 13.4989 3.62448 13.3736 3.8869L14.0608 4.57408Z" fill="black"/>
</svg>
