<svg width="23" height="26" viewBox="0 0 23 26" fill="none" xmlns="http://www.w3.org/2000/svg">
<path d="M13.396 12.9999L22.9307 1.2262C23.0905 1.03054 22.9561 0.733276 22.7091 0.733276H19.8106C19.6399 0.733276 19.4764 0.812295 19.3638 0.947755L11.5 10.6595L3.63618 0.947755C3.52721 0.812295 3.36376 0.733276 3.18941 0.733276H0.290871C0.0438782 0.733276 -0.0905154 1.03054 0.0693037 1.2262L9.60397 12.9999L0.0693037 24.7737C0.0335028 24.8173 0.0105351 24.8706 0.00312665 24.9274C-0.00428181 24.9841 0.00418011 25.0418 0.0275087 25.0937C0.0508372 25.1456 0.0880525 25.1895 0.134735 25.2202C0.181418 25.2508 0.235608 25.2669 0.290871 25.2666H3.18941C3.36012 25.2666 3.52358 25.1876 3.63618 25.0521L11.5 15.3404L19.3638 25.0521C19.4728 25.1876 19.6362 25.2666 19.8106 25.2666H22.7091C22.9561 25.2666 23.0905 24.9693 22.9307 24.7737L13.396 12.9999Z" fill="#031A32"/>
</svg>
