<svg width="14" height="15" viewBox="0 0 14 15" fill="none" xmlns="http://www.w3.org/2000/svg">
<path d="M6.92 5.59325C7.77334 5.63325 7.99334 6.35992 8.00667 6.69992H9.2C9.14667 5.37992 8.20667 4.57325 6.9 4.57325C5.42667 4.57325 4.33334 5.49992 4.33334 7.59325C4.33334 8.88659 4.95334 10.4199 6.89334 10.4199C8.37334 10.4199 9.16667 9.31992 9.18667 8.45325H7.99334C7.97334 8.84659 7.69334 9.37325 6.90667 9.41325C6.03334 9.38658 5.66667 8.70658 5.66667 7.59325C5.66667 5.66658 6.52 5.60659 6.92 5.59325ZM7 0.833252C3.32 0.833252 0.333336 3.81992 0.333336 7.49992C0.333336 11.1799 3.32 14.1666 7 14.1666C10.68 14.1666 13.6667 11.1799 13.6667 7.49992C13.6667 3.81992 10.68 0.833252 7 0.833252ZM7 12.8333C4.06 12.8333 1.66667 10.4399 1.66667 7.49992C1.66667 4.55992 4.06 2.16659 7 2.16659C9.94 2.16659 12.3333 4.55992 12.3333 7.49992C12.3333 10.4399 9.94 12.8333 7 12.8333Z" fill="white"/>
</svg>
