<svg width="24" height="25" viewBox="0 0 24 25" fill="none" xmlns="http://www.w3.org/2000/svg">
<path d="M4.66681 11.3933C4.75455 11.3928 4.84152 11.4097 4.92275 11.4428C5.00397 11.476 5.07785 11.5249 5.14015 11.5867L12.0001 18.4467L18.8601 11.5867C18.9877 11.4775 19.1517 11.4204 19.3195 11.4269C19.4873 11.4334 19.6465 11.5029 19.7652 11.6216C19.8839 11.7404 19.9535 11.8995 19.96 12.0673C19.9664 12.2351 19.9094 12.3991 19.8001 12.5267L12.0001 20.3333L4.19348 12.5267C4.10174 12.4331 4.03962 12.3145 4.01489 12.1858C3.99015 12.0571 4.00389 11.924 4.0544 11.8031C4.1049 11.6822 4.18993 11.5788 4.29885 11.5059C4.40778 11.433 4.53576 11.3939 4.66681 11.3933Z" fill="black"/>
<path d="M4.66681 4.06001C4.75455 4.0595 4.84152 4.07632 4.92275 4.10949C5.00397 4.14267 5.07785 4.19155 5.14015 4.25334L12.0001 11.1133L18.8601 4.25334C18.9877 4.14412 19.1517 4.08705 19.3195 4.09353C19.4873 4.10001 19.6465 4.16957 19.7652 4.2883C19.8839 4.40703 19.9535 4.56619 19.96 4.73397C19.9664 4.90176 19.9094 5.06581 19.8001 5.19334L12.0001 13L4.19348 5.19334C4.10174 5.09975 4.03962 4.9812 4.01489 4.8525C3.99015 4.72381 4.00389 4.59067 4.0544 4.46974C4.1049 4.34881 4.18993 4.24545 4.29885 4.17258C4.40778 4.0997 4.53576 4.06055 4.66681 4.06001Z" fill="black"/>
</svg>
