<svg width="22" height="23" viewBox="0 0 22 23" fill="none" xmlns="http://www.w3.org/2000/svg">
<path d="M16.4167 2.2433C18.0635 3.19413 19.4311 4.56172 20.382 6.2086C21.3328 7.85549 21.8333 9.72365 21.8333 11.6253C21.8333 13.527 21.3327 15.3951 20.3819 17.042C19.431 18.6889 18.0634 20.0564 16.4165 21.0073C14.7696 21.9581 12.9015 22.4586 10.9998 22.4586C9.09816 22.4585 7.23001 21.9579 5.58314 21.0071C3.93628 20.0562 2.56872 18.6886 1.61793 17.0417C0.667135 15.3948 0.166608 13.5266 0.166656 11.625L0.172073 11.274C0.232743 9.40304 0.777167 7.57976 1.75227 5.98187C2.72737 4.38399 4.09986 3.06604 5.73596 2.1565C7.37205 1.24697 9.2159 0.776895 11.0877 0.792106C12.9596 0.807317 14.7956 1.3073 16.4167 2.2433ZM11 5.12497C8.77699 5.12497 6.91799 6.69472 6.07191 8.91663H5.58332C5.3072 8.91694 5.04162 9.02267 4.84084 9.21222C4.64006 9.40177 4.51924 9.66083 4.50305 9.93648C4.48687 10.2121 4.57655 10.4835 4.75378 10.6953C4.931 10.907 5.18239 11.0431 5.45657 11.0757L5.60174 11.0833C5.57697 11.444 5.57697 11.8059 5.60174 12.1666H5.58332C5.29601 12.1666 5.02046 12.2808 4.81729 12.4839C4.61413 12.6871 4.49999 12.9626 4.49999 13.25C4.49999 13.5373 4.61413 13.8128 4.81729 14.016C5.02046 14.2192 5.29601 14.3333 5.58332 14.3333H6.07299C6.91799 16.5574 8.77699 18.125 11 18.125C12.2361 18.125 13.4017 17.6299 14.341 16.7491C14.5507 16.5526 14.6738 16.2808 14.6832 15.9935C14.6925 15.7063 14.5873 15.427 14.3908 15.2173C14.1943 15.0076 13.9225 14.8845 13.6352 14.8751C13.348 14.8658 13.0687 14.9709 12.859 15.1675C12.3076 15.6853 11.6652 15.9583 11 15.9583C10.0012 15.9583 9.07599 15.3321 8.47041 14.3344L9.91666 14.3333C10.204 14.3333 10.4795 14.2192 10.6827 14.016C10.8859 13.8128 11 13.5373 11 13.25C11 12.9626 10.8859 12.6871 10.6827 12.4839C10.4795 12.2808 10.204 12.1666 9.91666 12.1666H7.77491C7.74103 11.8063 7.74103 11.4436 7.77491 11.0833H9.91666C10.204 11.0833 10.4795 10.9692 10.6827 10.766C10.8859 10.5628 11 10.2873 11 9.99996C11 9.71265 10.8859 9.4371 10.6827 9.23393C10.4795 9.03077 10.204 8.91663 9.91666 8.91663H8.46932C9.07599 7.91888 10.0012 7.29163 11 7.29163C11.6662 7.29163 12.3087 7.56463 12.8601 8.08246C13.0698 8.27899 13.349 8.38415 13.6363 8.3748C13.9236 8.36546 14.1954 8.24237 14.3919 8.03263C14.5884 7.82289 14.6936 7.54367 14.6842 7.25639C14.6749 6.96912 14.5518 6.69732 14.3421 6.5008C13.4028 5.62113 12.2372 5.12497 11 5.12497Z" fill="white"/>
</svg>
