<svg width="42" height="41" viewBox="0 0 42 41" fill="none" xmlns="http://www.w3.org/2000/svg">
<g clip-path="url(#clip0_4383_6167)">
<path d="M41.5 20.5C41.5 9.17823 32.3218 0 21 0C9.67823 0 0.5 9.17823 0.5 20.5C0.5 30.7321 7.99659 39.2131 17.7969 40.751V26.4258H12.5918V20.5H17.7969V15.9836C17.7969 10.8458 20.8575 8.00781 25.5401 8.00781C27.7829 8.00781 30.1289 8.4082 30.1289 8.4082V13.4531H27.544C24.9973 13.4531 24.2031 15.0334 24.2031 16.6546V20.5H29.8887L28.9798 26.4258H24.2031V40.751C34.0034 39.2131 41.5 30.7322 41.5 20.5Z" fill="#1877F2"/>
<path d="M28.9798 26.4258L29.8887 20.5H24.2031V16.6546C24.2031 15.0332 24.9973 13.4531 27.544 13.4531H30.1289V8.4082C30.1289 8.4082 27.7829 8.00781 25.5399 8.00781C20.8575 8.00781 17.7969 10.8458 17.7969 15.9836V20.5H12.5918V26.4258H17.7969V40.751C18.8565 40.917 19.9274 41.0003 21 41C22.0726 41.0003 23.1435 40.917 24.2031 40.751V26.4258H28.9798Z" fill="white"/>
</g>
<defs>
<clipPath id="clip0_4383_6167">
<rect width="41" height="41" fill="white" transform="translate(0.5)"/>
</clipPath>
</defs>
</svg>
