<svg width="42" height="41" viewBox="0 0 42 41" fill="none" xmlns="http://www.w3.org/2000/svg">
<path d="M14.7829 1.34847C10.6863 2.7696 7.15349 5.46694 4.70325 9.04431C2.25302 12.6217 1.01454 16.8905 1.16973 21.2238C1.32493 25.557 2.86561 29.7263 5.56549 33.1192C8.26537 36.5121 11.9821 38.9498 16.1698 40.0743C19.5649 40.9503 23.1219 40.9888 26.5351 40.1864C29.6272 39.4918 32.4858 38.0062 34.8312 35.875C37.2723 33.589 39.0441 30.681 39.9562 27.4636C40.9477 23.9647 41.1241 20.2851 40.4719 16.7075H21.4069V24.616H32.4481C32.2274 25.8773 31.7546 27.0812 31.0578 28.1555C30.361 29.2299 29.4547 30.1526 28.393 30.8685C27.0447 31.7603 25.5249 32.3604 23.931 32.6302C22.3325 32.9274 20.6928 32.9274 19.0943 32.6302C17.4741 32.2952 15.9414 31.6265 14.5939 30.6667C12.4291 29.1343 10.8036 26.9572 9.94936 24.4462C9.08072 21.8882 9.08072 19.1149 9.94936 16.5569C10.5574 14.7639 11.5626 13.1313 12.8898 11.781C14.4087 10.2075 16.3317 9.08273 18.4478 8.53012C20.5638 7.97752 22.7912 8.01844 24.8855 8.64839C26.5216 9.15062 28.0177 10.0281 29.2546 11.2109C30.4995 9.97235 31.7424 8.73061 32.983 7.48566C33.6237 6.81621 34.3219 6.17878 34.953 5.49332C33.0649 3.73633 30.8487 2.36917 28.4314 1.47019C24.0294 -0.128202 19.2127 -0.171157 14.7829 1.34847Z" fill="white"/>
<path d="M14.7829 1.34856C19.2124 -0.172098 24.0291 -0.130273 28.4315 1.46708C30.8492 2.37217 33.0644 3.7459 34.9498 5.50942C34.3092 6.19489 33.6333 6.83552 32.9799 7.50177C31.7371 8.74244 30.4953 9.97885 29.2547 11.211C28.0178 10.0282 26.5217 9.15071 24.8856 8.64849C22.792 8.01632 20.5646 7.97303 18.448 8.52338C16.3314 9.07372 14.4073 10.1964 12.8867 11.7683C11.5594 13.1186 10.5543 14.7511 9.94623 16.5442L3.30615 11.4032C5.6829 6.68997 9.79808 3.08473 14.7829 1.34856Z" fill="#E33629"/>
<path d="M1.54415 16.496C1.90105 14.7273 2.49357 13.0143 3.30587 11.4031L9.94595 16.5569C9.07731 19.1149 9.07731 21.8882 9.94595 24.4462C7.73366 26.1545 5.5203 27.8714 3.30587 29.5968C1.27237 25.5491 0.652185 20.9372 1.54415 16.496Z" fill="#F8BD00"/>
<path d="M21.4067 16.7043H40.4717C41.1238 20.282 40.9474 23.9616 39.956 27.4604C39.0439 30.6779 37.272 33.5859 34.831 35.8718C32.6881 34.1998 30.5356 32.5406 28.3927 30.8686C29.4551 30.152 30.3619 29.2282 31.0587 28.1527C31.7555 27.0773 32.228 25.8721 32.4479 24.6097H21.4067C21.4035 21.9767 21.4067 19.3405 21.4067 16.7043Z" fill="#587DBD"/>
<path d="M3.30273 29.5969C5.51716 27.8886 7.73052 26.1717 9.94281 24.4463C10.7987 26.9582 12.4265 29.1353 14.5938 30.6668C15.9455 31.6221 17.4815 32.2854 19.1038 32.6143C20.7023 32.9115 22.3419 32.9115 23.9405 32.6143C25.5343 32.3445 27.0542 31.7444 28.4024 30.8525C30.5453 32.5246 32.6978 34.1838 34.8407 35.8558C32.4957 37.9882 29.637 39.475 26.5446 40.1704C23.1314 40.9728 19.5744 40.9344 16.1793 40.0583C13.4941 39.3414 10.986 38.0775 8.81211 36.3459C6.51118 34.5191 4.63189 32.217 3.30273 29.5969Z" fill="#319F43"/>
</svg>
