<svg width="18" height="18" viewBox="0 0 18 18" fill="none" xmlns="http://www.w3.org/2000/svg">
<path d="M9.06523 14.6235L8.97548 14.7133L8.87675 14.6235C4.6134 10.7551 1.7951 8.19708 1.7951 5.60317C1.7951 3.80807 3.14142 2.46175 4.93651 2.46175C6.31874 2.46175 7.66506 3.3593 8.14076 4.57996H9.8102C10.2859 3.3593 11.6322 2.46175 13.0144 2.46175C14.8095 2.46175 16.1559 3.80807 16.1559 5.60317C16.1559 8.19708 13.3376 10.7551 9.06523 14.6235ZM13.0144 0.666656C11.4527 0.666656 9.9538 1.39367 8.97548 2.53356C7.99715 1.39367 6.49824 0.666656 4.93651 0.666656C2.17207 0.666656 0 2.82975 0 5.60317C0 8.98692 3.05166 11.7603 7.67403 15.9519L8.97548 17.1367L10.2769 15.9519C14.8993 11.7603 17.951 8.98692 17.951 5.60317C17.951 2.82975 15.7789 0.666656 13.0144 0.666656Z" fill="#181CDB"/>
</svg>
