<svg width="17" height="17" viewBox="0 0 17 17" fill="none" xmlns="http://www.w3.org/2000/svg">
<path fill-rule="evenodd" clip-rule="evenodd" d="M8.33334 0C12.9358 0 16.6667 3.73083 16.6667 8.33333C16.6695 10.2566 16.0044 12.1211 14.785 13.6083L14.8017 13.6267L14.6917 13.72C13.9101 14.6443 12.9362 15.3868 11.838 15.8957C10.7398 16.4047 9.54375 16.6678 8.33334 16.6667C5.87501 16.6667 3.66668 15.6025 2.14167 13.9108L1.97501 13.7192L1.86501 13.6275L1.88167 13.6075C0.662429 12.1205 -0.00266861 10.2563 8.04759e-06 8.33333C8.04759e-06 3.73083 3.73084 0 8.33334 0ZM8.33334 12.5C6.78334 12.5 5.38251 12.9933 4.33917 13.6717C5.49133 14.5358 6.89315 15.002 8.33334 15C9.77354 15.002 11.1754 14.5358 12.3275 13.6717C11.1353 12.9078 9.74928 12.5013 8.33334 12.5ZM8.33334 1.66667C7.07878 1.66663 5.84966 2.0206 4.78728 2.68787C3.72489 3.35515 2.87235 4.30866 2.32764 5.43881C1.78294 6.56895 1.56818 7.82986 1.70805 9.0766C1.84792 10.3233 2.33675 11.5053 3.11834 12.4867C4.46918 11.5175 6.31251 10.8333 8.33334 10.8333C10.3542 10.8333 12.1975 11.5175 13.5483 12.4867C14.3299 11.5053 14.8188 10.3233 14.9586 9.0766C15.0985 7.82986 14.8837 6.56895 14.339 5.43881C13.7943 4.30866 12.9418 3.35515 11.8794 2.68787C10.817 2.0206 9.5879 1.66663 8.33334 1.66667ZM8.33334 3.33333C9.2174 3.33333 10.0652 3.68452 10.6904 4.30964C11.3155 4.93476 11.6667 5.78261 11.6667 6.66667C11.6667 7.55072 11.3155 8.39857 10.6904 9.02369C10.0652 9.64881 9.2174 10 8.33334 10C7.44929 10 6.60144 9.64881 5.97632 9.02369C5.3512 8.39857 5.00001 7.55072 5.00001 6.66667C5.00001 5.78261 5.3512 4.93476 5.97632 4.30964C6.60144 3.68452 7.44929 3.33333 8.33334 3.33333ZM8.33334 5C7.89131 5 7.46739 5.17559 7.15483 5.48816C6.84227 5.80072 6.66668 6.22464 6.66668 6.66667C6.66668 7.10869 6.84227 7.53262 7.15483 7.84518C7.46739 8.15774 7.89131 8.33333 8.33334 8.33333C8.77537 8.33333 9.19929 8.15774 9.51185 7.84518C9.82441 7.53262 10 7.10869 10 6.66667C10 6.22464 9.82441 5.80072 9.51185 5.48816C9.19929 5.17559 8.77537 5 8.33334 5Z" fill="#181CDB"/>
</svg>
