<svg width="13" height="18" viewBox="0 0 13 18" fill="none" xmlns="http://www.w3.org/2000/svg">
<path d="M6.5 0.25C3.05391 0.25 0.25 2.93164 0.25 6.22656C0.25 7.7957 0.965234 9.88242 2.37578 12.4289C3.50859 14.4734 4.81914 16.3223 5.50078 17.2422C5.61596 17.3994 5.76656 17.5272 5.94037 17.6153C6.11418 17.7034 6.3063 17.7493 6.50117 17.7493C6.69604 17.7493 6.88816 17.7034 7.06197 17.6153C7.23578 17.5272 7.38638 17.3994 7.50156 17.2422C8.18203 16.3223 9.49375 14.4734 10.6266 12.4289C12.0348 9.8832 12.75 7.79648 12.75 6.22656C12.75 2.93164 9.94609 0.25 6.5 0.25ZM6.5 9C6.00555 9 5.5222 8.85338 5.11107 8.57867C4.69995 8.30397 4.37952 7.91352 4.1903 7.45671C4.00108 6.99989 3.95157 6.49723 4.04804 6.01227C4.1445 5.52732 4.3826 5.08186 4.73223 4.73223C5.08186 4.3826 5.52732 4.1445 6.01227 4.04804C6.49723 3.95157 6.99989 4.00108 7.45671 4.1903C7.91352 4.37952 8.30397 4.69995 8.57867 5.11107C8.85338 5.5222 9 6.00555 9 6.5C8.99928 7.16282 8.73565 7.79828 8.26697 8.26697C7.79828 8.73565 7.16282 8.99928 6.5 9Z" fill="white"/>
</svg>
