<svg width="14" height="18" viewBox="0 0 14 18" fill="none" xmlns="http://www.w3.org/2000/svg">
<path d="M7 0.342163C3.55391 0.342163 0.75 3.0238 0.75 6.31873C0.75 7.88787 1.46523 9.97459 2.87578 12.5211C4.00859 14.5656 5.31914 16.4144 6.00078 17.3344C6.11596 17.4915 6.26656 17.6194 6.44037 17.7075C6.61418 17.7956 6.8063 17.8415 7.00117 17.8415C7.19604 17.8415 7.38816 17.7956 7.56197 17.7075C7.73578 17.6194 7.88638 17.4915 8.00156 17.3344C8.68203 16.4144 9.99375 14.5656 11.1266 12.5211C12.5348 9.97537 13.25 7.88865 13.25 6.31873C13.25 3.0238 10.4461 0.342163 7 0.342163ZM7 9.09216C6.50555 9.09216 6.0222 8.94554 5.61107 8.67084C5.19995 8.39613 4.87952 8.00569 4.6903 7.54887C4.50108 7.09206 4.45157 6.58939 4.54804 6.10444C4.6445 5.61949 4.8826 5.17403 5.23223 4.8244C5.58186 4.47477 6.02732 4.23666 6.51227 4.1402C6.99723 4.04374 7.49989 4.09325 7.95671 4.28246C8.41352 4.47168 8.80397 4.79212 9.07867 5.20324C9.35338 5.61436 9.5 6.09771 9.5 6.59216C9.49928 7.25498 9.23565 7.89045 8.76697 8.35913C8.29828 8.82782 7.66282 9.09144 7 9.09216Z" fill="#031A32"/>
</svg>
