<svg width="19" height="20" viewBox="0 0 19 20" fill="none" xmlns="http://www.w3.org/2000/svg">
<path opacity="0.8" fill-rule="evenodd" clip-rule="evenodd" d="M2 8.97541C2 5.5666 4.76338 2.80322 8.17218 2.80322C11.581 2.80322 14.3444 5.5666 14.3444 8.97541C14.3444 12.3842 11.581 15.1476 8.17218 15.1476C4.76338 15.1476 2 12.3842 2 8.97541ZM8.17218 0.803223C3.65881 0.803223 0 4.46203 0 8.97541C0 13.4888 3.65881 17.1476 8.17218 17.1476C10.0683 17.1476 11.8137 16.5018 13.2002 15.4182L16.686 18.904C17.0765 19.2945 17.7097 19.2945 18.1002 18.904C18.4907 18.5134 18.4907 17.8803 18.1002 17.4897L14.6145 14.004C15.6984 12.6174 16.3444 10.8718 16.3444 8.97541C16.3444 4.46203 12.6856 0.803223 8.17218 0.803223Z" fill="#889EA8"/>
</svg>
