<svg width="24" height="26" viewBox="0 0 24 26" fill="none" xmlns="http://www.w3.org/2000/svg">
<path d="M14.4499 5.55C14.6843 5.78409 15.002 5.91557 15.3333 5.91557C15.6645 5.91557 15.9822 5.78409 16.2166 5.55L17.4166 4.35V21.3333C17.4166 21.6649 17.5483 21.9828 17.7827 22.2172C18.0171 22.4516 18.3351 22.5833 18.6666 22.5833C18.9981 22.5833 19.3161 22.4516 19.5505 22.2172C19.7849 21.9828 19.9166 21.6649 19.9166 21.3333V4.35L21.1166 5.55C21.231 5.67281 21.369 5.77132 21.5224 5.83964C21.6757 5.90796 21.8412 5.94469 22.0091 5.94765C22.1769 5.95062 22.3436 5.91974 22.4993 5.85687C22.6549 5.794 22.7963 5.70043 22.915 5.58173C23.0337 5.46303 23.1273 5.32164 23.1901 5.166C23.253 5.01035 23.2839 4.84364 23.2809 4.6758C23.278 4.50796 23.2412 4.34244 23.1729 4.1891C23.1046 4.03577 23.0061 3.89777 22.8833 3.78333L19.5499 0.450001C19.3156 0.215917 18.9978 0.0844345 18.6666 0.0844345C18.3353 0.0844345 18.0176 0.215917 17.7833 0.450001L14.4499 3.78333C14.2158 4.01771 14.0844 4.33542 14.0844 4.66667C14.0844 4.99792 14.2158 5.31563 14.4499 5.55ZM6.58326 21.65L7.78326 20.45C7.8977 20.3272 8.0357 20.2287 8.18903 20.1604C8.34237 20.092 8.50789 20.0553 8.67573 20.0524C8.84356 20.0494 9.01028 20.0803 9.16593 20.1431C9.32157 20.206 9.46296 20.2996 9.58166 20.4183C9.70036 20.537 9.79393 20.6784 9.8568 20.834C9.91967 20.9897 9.95054 21.1564 9.94758 21.3242C9.94462 21.492 9.90789 21.6576 9.83957 21.8109C9.77125 21.9642 9.67274 22.1022 9.54993 22.2167L6.2166 25.55C5.98222 25.7841 5.66451 25.9156 5.33326 25.9156C5.00201 25.9156 4.68431 25.7841 4.44993 25.55L1.1166 22.2167C0.993785 22.1022 0.895282 21.9642 0.826962 21.8109C0.758642 21.6576 0.721906 21.492 0.718945 21.3242C0.715983 21.1564 0.746857 20.9897 0.809726 20.834C0.872594 20.6784 0.966168 20.537 1.08487 20.4183C1.20356 20.2996 1.34495 20.206 1.5006 20.1431C1.65625 20.0803 1.82296 20.0494 1.9908 20.0524C2.15864 20.0553 2.32416 20.092 2.47749 20.1604C2.63083 20.2287 2.76883 20.3272 2.88326 20.45L4.08326 21.65V4.66667C4.08326 4.33515 4.21496 4.0172 4.44938 3.78278C4.6838 3.54836 5.00174 3.41667 5.33326 3.41667C5.66478 3.41667 5.98273 3.54836 6.21715 3.78278C6.45157 4.0172 6.58326 4.33515 6.58326 4.66667V21.65Z" fill="black"/>
</svg>
