<svg width="15" height="16" viewBox="0 0 15 16" fill="none" xmlns="http://www.w3.org/2000/svg">
<path fill-rule="evenodd" clip-rule="evenodd" d="M13.9832 2.83279C14.4225 2.37955 14.4112 1.65602 13.9579 1.21675C13.5047 0.777475 12.7812 0.788801 12.3419 1.24205L7.38364 6.358L2.42538 1.24205C1.98611 0.788801 1.26258 0.777475 0.809337 1.21675C0.356092 1.65602 0.344766 2.37955 0.784039 2.83279L5.79211 8.00015L0.784039 13.1675C0.344766 13.6208 0.356092 14.3443 0.809337 14.7836C1.26258 15.2228 1.98611 15.2115 2.42538 14.7583L7.38364 9.6423L12.3419 14.7583C12.7812 15.2115 13.5047 15.2228 13.9579 14.7836C14.4112 14.3443 14.4225 13.6208 13.9832 13.1675L8.97517 8.00015L13.9832 2.83279Z" fill="#031A32"/>
</svg>
