<svg width="18" height="21" viewBox="0 0 18 21" fill="none" xmlns="http://www.w3.org/2000/svg">
<path d="M15 20.5C14.1667 20.5 13.4583 20.2083 12.875 19.625C12.2917 19.0417 12 18.3333 12 17.5C12 17.3833 12.0083 17.2623 12.025 17.137C12.0417 17.0117 12.0667 16.8993 12.1 16.8L5.05 12.7C4.76667 12.95 4.45 13.146 4.1 13.288C3.75 13.43 3.38333 13.5007 3 13.5C2.16667 13.5 1.45833 13.2083 0.875 12.625C0.291667 12.0417 0 11.3333 0 10.5C0 9.66667 0.291667 8.95833 0.875 8.375C1.45833 7.79167 2.16667 7.5 3 7.5C3.38333 7.5 3.75 7.571 4.1 7.713C4.45 7.855 4.76667 8.05067 5.05 8.3L12.1 4.2C12.0667 4.1 12.0417 3.98767 12.025 3.863C12.0083 3.73833 12 3.61733 12 3.5C12 2.66667 12.2917 1.95833 12.875 1.375C13.4583 0.791667 14.1667 0.5 15 0.5C15.8333 0.5 16.5417 0.791667 17.125 1.375C17.7083 1.95833 18 2.66667 18 3.5C18 4.33333 17.7083 5.04167 17.125 5.625C16.5417 6.20833 15.8333 6.5 15 6.5C14.6167 6.5 14.25 6.42933 13.9 6.288C13.55 6.14667 13.2333 5.95067 12.95 5.7L5.9 9.8C5.93333 9.9 5.95833 10.0127 5.975 10.138C5.99167 10.2633 6 10.384 6 10.5C6 10.6167 5.99167 10.7377 5.975 10.863C5.95833 10.9883 5.93333 11.1007 5.9 11.2L12.95 15.3C13.2333 15.05 13.55 14.8543 13.9 14.713C14.25 14.5717 14.6167 14.5007 15 14.5C15.8333 14.5 16.5417 14.7917 17.125 15.375C17.7083 15.9583 18 16.6667 18 17.5C18 18.3333 17.7083 19.0417 17.125 19.625C16.5417 20.2083 15.8333 20.5 15 20.5ZM15 4.5C15.2833 4.5 15.521 4.40433 15.713 4.213C15.905 4.02167 16.0007 3.784 16 3.5C16 3.21667 15.904 2.97933 15.712 2.788C15.52 2.59667 15.2827 2.50067 15 2.5C14.7167 2.5 14.4793 2.596 14.288 2.788C14.0967 2.98 14.0007 3.21733 14 3.5C14 3.78333 14.096 4.021 14.288 4.213C14.48 4.405 14.7173 4.50067 15 4.5ZM3 11.5C3.28333 11.5 3.521 11.404 3.713 11.212C3.905 11.02 4.00067 10.7827 4 10.5C4 10.2167 3.904 9.97933 3.712 9.788C3.52 9.59667 3.28267 9.50067 3 9.5C2.71667 9.5 2.47933 9.596 2.288 9.788C2.09667 9.98 2.00067 10.2173 2 10.5C2 10.7833 2.096 11.021 2.288 11.213C2.48 11.405 2.71733 11.5007 3 11.5ZM15 18.5C15.2833 18.5 15.521 18.404 15.713 18.212C15.905 18.02 16.0007 17.7827 16 17.5C16 17.2167 15.904 16.9793 15.712 16.788C15.52 16.5967 15.2827 16.5007 15 16.5C14.7167 16.5 14.4793 16.596 14.288 16.788C14.0967 16.98 14.0007 17.2173 14 17.5C14 17.7833 14.096 18.021 14.288 18.213C14.48 18.405 14.7173 18.5007 15 18.5Z" fill="#181CDB"/>
</svg>
