<svg width="20" height="21" viewBox="0 0 20 21" fill="none" xmlns="http://www.w3.org/2000/svg">
<path d="M1 5.5V1.5L5 3.5L1 5.5ZM16 5.5V1.5L20 3.5L16 5.5ZM9 4.5V0.5L13 2.5L9 4.5ZM7 20.375C6.13333 20.2917 5.28333 20.1667 4.45 20C3.61667 19.8333 2.87067 19.6293 2.212 19.388C1.554 19.146 1.02067 18.8667 0.612002 18.55C0.203335 18.2333 -0.000665038 17.8833 1.62866e-06 17.5V8.5C1.62866e-06 8.08333 0.262668 7.696 0.788002 7.338C1.31334 6.98 2.02567 6.66333 2.925 6.388C3.825 6.11267 4.88334 5.896 6.1 5.738C7.31667 5.58 8.61667 5.50067 10 5.5C11.3833 5.5 12.6833 5.57933 13.9 5.738C15.1167 5.89667 16.175 6.11333 17.075 6.388C17.975 6.66267 18.6877 6.97933 19.213 7.338C19.7383 7.69667 20.0007 8.084 20 8.5V17.5C20 17.8833 19.796 18.2333 19.388 18.55C18.98 18.8667 18.4467 19.146 17.788 19.388C17.1293 19.6293 16.3833 19.8333 15.55 20C14.7167 20.1667 13.8667 20.2917 13 20.375V15.5H7V20.375ZM10 9.5C11.6167 9.5 13.0127 9.404 14.188 9.212C15.3633 9.02 16.3007 8.79933 17 8.55C17 8.46667 16.3667 8.271 15.1 7.963C13.8333 7.655 12.1333 7.50067 10 7.5C7.86667 7.5 6.16667 7.65433 4.9 7.963C3.63333 8.27167 3 8.46733 3 8.55C3.7 8.8 4.63767 9.021 5.813 9.213C6.98834 9.405 8.384 9.50067 10 9.5Z" fill="black"/>
</svg>
