<svg width="20" height="18" viewBox="0 0 20 18" fill="none" xmlns="http://www.w3.org/2000/svg">
<path d="M11 16.5H2C1.73478 16.5 1.48043 16.3946 1.29289 16.2071C1.10536 16.0196 1 15.7652 1 15.5V6.5C1 6.23478 1.10536 5.98043 1.29289 5.79289C1.48043 5.60536 1.73478 5.5 2 5.5H5M11 16.5H14C14.2652 16.5 14.5196 16.3946 14.7071 16.2071C14.8946 16.0196 15 15.7652 15 15.5V13M11 16.5V15.5" stroke="black" stroke-width="2" stroke-linecap="round" stroke-linejoin="round"/>
<path fill-rule="evenodd" clip-rule="evenodd" d="M20 2.5C20 1.96957 19.7893 1.46086 19.4142 1.08579C19.0391 0.710714 18.5304 0.5 18 0.5H6C5.46957 0.5 4.96086 0.710714 4.58579 1.08579C4.21071 1.46086 4 1.96957 4 2.5V11.5C4 12.0304 4.21071 12.5391 4.58579 12.9142C4.96086 13.2893 5.46957 13.5 6 13.5H18C18.5304 13.5 19.0391 13.2893 19.4142 12.9142C19.7893 12.5391 20 12.0304 20 11.5V2.5ZM16 2.501C16 2.76622 15.8946 3.02057 15.7071 3.20811C15.5196 3.39564 15.2652 3.501 15 3.501C14.7348 3.501 14.4804 3.39564 14.2929 3.20811C14.1054 3.02057 14 2.76622 14 2.501C14 2.23578 14.1054 1.98043 14.2929 1.79289C14.4804 1.60536 14.7348 1.5 15 1.5C15.2652 1.5 15.5196 1.60536 15.7071 1.79289C15.8946 1.98043 16 2.23578 16 2.501ZM15 7.501C15.2652 7.501 15.5196 7.39564 15.7071 7.20811C15.8946 7.02057 16 6.76622 16 6.501V6.5C16 6.23478 15.8946 5.98043 15.7071 5.79289C15.5196 5.60536 15.2652 5.5 15 5.5C14.7348 5.5 14.4804 5.60536 14.2929 5.79289C14.1054 5.98043 14 6.23478 14 6.5V6.501C14 6.76622 14.1054 7.02057 14.2929 7.20811C14.4804 7.39564 14.7348 7.501 15 7.501ZM16 10.501C16 10.7662 15.8946 11.0206 15.7071 11.2081C15.5196 11.3956 15.2652 11.501 15 11.501C14.7348 11.501 14.4804 11.3956 14.2929 11.2081C14.1054 11.0206 14 10.7662 14 10.501V10.5C14 10.2348 14.1054 9.98043 14.2929 9.79289C14.4804 9.60536 14.7348 9.5 15 9.5C15.2652 9.5 15.5196 9.60536 15.7071 9.79289C15.8946 9.98043 16 10.2348 16 10.5V10.501Z" fill="black"/>
</svg>
