<svg width="18" height="18" viewBox="0 0 18 18" fill="none" xmlns="http://www.w3.org/2000/svg">
<path d="M8.99935 17.3333C4.39685 17.3333 0.666016 13.6025 0.666016 8.99999C0.666016 4.39749 4.39685 0.666656 8.99935 0.666656C13.6018 0.666656 17.3327 4.39749 17.3327 8.99999C17.3327 13.6025 13.6018 17.3333 8.99935 17.3333ZM8.99935 15.6667C10.7675 15.6667 12.4632 14.9643 13.7134 13.714C14.9636 12.4638 15.666 10.7681 15.666 8.99999C15.666 7.23188 14.9636 5.53619 13.7134 4.28594C12.4632 3.0357 10.7675 2.33332 8.99935 2.33332C7.23124 2.33332 5.53555 3.0357 4.2853 4.28594C3.03506 5.53619 2.33268 7.23188 2.33268 8.99999C2.33268 10.7681 3.03506 12.4638 4.2853 13.714C5.53555 14.9643 7.23124 15.6667 8.99935 15.6667ZM9.83268 8.99999H13.166V10.6667H8.16601V4.83332H9.83268V8.99999Z" fill="#181CDB"/>
</svg>
