<svg width="28" height="17" viewBox="0 0 28 17" fill="none" xmlns="http://www.w3.org/2000/svg">
<path d="M1.9444 1.21399H26.0555V15.9918H1.9444V1.21399Z" fill="white"/>
<path d="M1.9444 1.21399H26.0555V3.15843H1.9444V1.21399ZM1.9444 4.71399H26.0555V6.26954H1.9444V4.71399ZM1.9444 7.8251H26.0555V9.38065H1.9444V7.8251Z" fill="#D22F27"/>
<path d="M1.9444 1.21399H14.3888V9.38065H1.9444V1.21399Z" fill="#1E50A0"/>
<path d="M1.9444 10.9363H26.0555V12.4918H1.9444V10.9363Z" fill="#D22F27"/>
<path d="M3.69447 3.83902C4.07033 3.83902 4.37503 3.53432 4.37503 3.15846C4.37503 2.7826 4.07033 2.47791 3.69447 2.47791C3.31861 2.47791 3.01392 2.7826 3.01392 3.15846C3.01392 3.53432 3.31861 3.83902 3.69447 3.83902Z" fill="white"/>
<path d="M6.80556 3.83902C7.18142 3.83902 7.48611 3.53432 7.48611 3.15846C7.48611 2.7826 7.18142 2.47791 6.80556 2.47791C6.4297 2.47791 6.125 2.7826 6.125 3.15846C6.125 3.53432 6.4297 3.83902 6.80556 3.83902Z" fill="white"/>
<path d="M9.91664 3.83902C10.2925 3.83902 10.5972 3.53432 10.5972 3.15846C10.5972 2.7826 10.2925 2.47791 9.91664 2.47791C9.54078 2.47791 9.23608 2.7826 9.23608 3.15846C9.23608 3.53432 9.54078 3.83902 9.91664 3.83902Z" fill="white"/>
<path d="M13.0278 3.83902C13.4036 3.83902 13.7083 3.53432 13.7083 3.15846C13.7083 2.7826 13.4036 2.47791 13.0278 2.47791C12.6519 2.47791 12.3472 2.7826 12.3472 3.15846C12.3472 3.53432 12.6519 3.83902 13.0278 3.83902Z" fill="white"/>
<path d="M11.4722 5.39456C11.8481 5.39456 12.1528 5.08986 12.1528 4.714C12.1528 4.33814 11.8481 4.03345 11.4722 4.03345C11.0964 4.03345 10.7917 4.33814 10.7917 4.714C10.7917 5.08986 11.0964 5.39456 11.4722 5.39456Z" fill="white"/>
<path d="M8.36116 5.39456C8.73702 5.39456 9.04171 5.08986 9.04171 4.714C9.04171 4.33814 8.73702 4.03345 8.36116 4.03345C7.9853 4.03345 7.6806 4.33814 7.6806 4.714C7.6806 5.08986 7.9853 5.39456 8.36116 5.39456Z" fill="white"/>
<path d="M5.24995 5.39456C5.62581 5.39456 5.93051 5.08986 5.93051 4.714C5.93051 4.33814 5.62581 4.03345 5.24995 4.03345C4.87409 4.03345 4.5694 4.33814 4.5694 4.714C4.5694 5.08986 4.87409 5.39456 5.24995 5.39456Z" fill="white"/>
<path d="M3.69447 6.9501C4.07033 6.9501 4.37503 6.64541 4.37503 6.26954C4.37503 5.89368 4.07033 5.58899 3.69447 5.58899C3.31861 5.58899 3.01392 5.89368 3.01392 6.26954C3.01392 6.64541 3.31861 6.9501 3.69447 6.9501Z" fill="white"/>
<path d="M6.80556 6.9501C7.18142 6.9501 7.48611 6.64541 7.48611 6.26954C7.48611 5.89368 7.18142 5.58899 6.80556 5.58899C6.4297 5.58899 6.125 5.89368 6.125 6.26954C6.125 6.64541 6.4297 6.9501 6.80556 6.9501Z" fill="white"/>
<path d="M9.91664 6.9501C10.2925 6.9501 10.5972 6.64541 10.5972 6.26954C10.5972 5.89368 10.2925 5.58899 9.91664 5.58899C9.54078 5.58899 9.23608 5.89368 9.23608 6.26954C9.23608 6.64541 9.54078 6.9501 9.91664 6.9501Z" fill="white"/>
<path d="M13.0278 6.9501C13.4036 6.9501 13.7083 6.64541 13.7083 6.26954C13.7083 5.89368 13.4036 5.58899 13.0278 5.58899C12.6519 5.58899 12.3472 5.89368 12.3472 6.26954C12.3472 6.64541 12.6519 6.9501 13.0278 6.9501Z" fill="white"/>
<path d="M11.4722 8.50576C11.8481 8.50576 12.1528 8.20107 12.1528 7.82521C12.1528 7.44935 11.8481 7.14465 11.4722 7.14465C11.0964 7.14465 10.7917 7.44935 10.7917 7.82521C10.7917 8.20107 11.0964 8.50576 11.4722 8.50576Z" fill="white"/>
<path d="M8.36116 8.50576C8.73702 8.50576 9.04171 8.20107 9.04171 7.82521C9.04171 7.44935 8.73702 7.14465 8.36116 7.14465C7.9853 7.14465 7.6806 7.44935 7.6806 7.82521C7.6806 8.20107 7.9853 8.50576 8.36116 8.50576Z" fill="white"/>
<path d="M5.24995 8.50576C5.62581 8.50576 5.93051 8.20107 5.93051 7.82521C5.93051 7.44935 5.62581 7.14465 5.24995 7.14465C4.87409 7.14465 4.5694 7.44935 4.5694 7.82521C4.5694 8.20107 4.87409 8.50576 5.24995 8.50576Z" fill="white"/>
<path d="M1.9444 14.0474H26.0555V15.9918H1.9444V14.0474Z" fill="#D22F27"/>
<path d="M1.9444 1.21399H26.0555V15.9918H1.9444V1.21399Z" stroke="white" stroke-width="2" stroke-linecap="round" stroke-linejoin="round"/>
</svg>
