<svg width="22" height="23" viewBox="0 0 22 23" fill="none" xmlns="http://www.w3.org/2000/svg">
<g clip-path="url(#clip0_3501_17245)">
<path d="M0.469467 11.4923C0.468951 13.3552 0.955701 15.1741 1.88125 16.7774L0.380951 22.2552L5.98683 20.7853C7.53734 21.6294 9.27457 22.0717 11.04 22.0718H11.0446C16.8724 22.0718 21.6165 17.3295 21.6189 11.5006C21.6201 8.67612 20.5211 6.02013 18.5244 4.02191C16.5281 2.02387 13.8731 0.92292 11.0442 0.921631C5.21563 0.921631 0.471959 5.66366 0.469553 11.4923" fill="url(#paint0_linear_3501_17245)"/>
<path d="M0.0919531 11.4889C0.0913516 13.4188 0.595547 15.3028 1.55409 16.9634L0 22.6376L5.80688 21.1151C7.40687 21.9874 9.20829 22.4474 11.0413 22.4481H11.0461C17.083 22.4481 21.9974 17.5352 22 11.4976C22.001 8.57164 20.8625 5.82018 18.7945 3.75038C16.7263 1.68083 13.9763 0.540266 11.0461 0.539062C5.00809 0.539062 0.0943594 5.45125 0.0919531 11.4889ZM3.55008 16.6774L3.33326 16.3333C2.4218 14.884 1.94073 13.2093 1.94141 11.4896C1.94339 6.47124 6.02748 2.38844 11.0495 2.38844C13.4815 2.38947 15.7671 3.33753 17.4862 5.05766C19.2052 6.77795 20.1511 9.06475 20.1505 11.497C20.1483 16.5153 16.0641 20.5986 11.0461 20.5986H11.0425C9.40852 20.5977 7.80605 20.1589 6.40853 19.3297L6.07595 19.1325L2.63003 20.036L3.55008 16.6774V16.6774Z" fill="url(#paint1_linear_3501_17245)"/>
<path d="M8.30827 6.91117C8.10323 6.45544 7.88744 6.44624 7.69245 6.43825C7.53277 6.43138 7.35024 6.43189 7.16788 6.43189C6.98535 6.43189 6.68878 6.50056 6.4381 6.77427C6.18717 7.04824 5.48007 7.7103 5.48007 9.05685C5.48007 10.4035 6.46088 11.7048 6.5976 11.8876C6.7345 12.0701 8.49106 14.9218 11.273 16.0189C13.5851 16.9306 14.0556 16.7493 14.5574 16.7036C15.0593 16.658 16.1768 16.0417 16.4048 15.4026C16.6329 14.7635 16.6329 14.2158 16.5645 14.1013C16.4961 13.9873 16.3136 13.9188 16.0399 13.782C15.7661 13.6451 14.4205 12.9829 14.1696 12.8916C13.9187 12.8003 13.7363 12.7547 13.5537 13.0288C13.3712 13.3024 12.8471 13.9188 12.6873 14.1013C12.5277 14.2843 12.368 14.307 12.0943 14.1701C11.8205 14.0328 10.939 13.7441 9.89322 12.8118C9.07956 12.0863 8.53025 11.1904 8.37058 10.9164C8.21091 10.6427 8.35348 10.4944 8.49072 10.358C8.6137 10.2354 8.76452 10.0384 8.9015 9.87867C9.03797 9.71883 9.08352 9.60479 9.17478 9.42226C9.26613 9.23956 9.22041 9.07971 9.15209 8.94282C9.08352 8.80592 8.55165 7.45232 8.30827 6.91117Z" fill="white"/>
</g>
<defs>
<linearGradient id="paint0_linear_3501_17245" x1="1062.28" y1="2134.28" x2="1062.28" y2="0.921631" gradientUnits="userSpaceOnUse">
<stop stop-color="#1FAF38"/>
<stop offset="1" stop-color="#60D669"/>
</linearGradient>
<linearGradient id="paint1_linear_3501_17245" x1="1100" y1="2210.4" x2="1100" y2="0.539062" gradientUnits="userSpaceOnUse">
<stop stop-color="#F9F9F9"/>
<stop offset="1" stop-color="white"/>
</linearGradient>
<clipPath id="clip0_3501_17245">
<rect width="22" height="22.1719" fill="white" transform="translate(0 0.414062)"/>
</clipPath>
</defs>
</svg>
