<svg width="27" height="22" viewBox="0 0 27 22" fill="none" xmlns="http://www.w3.org/2000/svg">
<g clip-path="url(#clip0_284_226)">
<path d="M2.52908 14.7399V17.1379H4.29682V14.7399H10.1893V17.1379H11.957V12.3419H2.52908V14.7399ZM11.3678 8.34528H13.1355V10.7433H11.3678V8.34528ZM1.35059 8.34528H3.11832V10.7433H1.35059V8.34528ZM10.1893 10.7433H4.29682V4.34865C4.29682 3.92466 4.42098 3.51804 4.64199 3.21823C4.863 2.91843 5.16275 2.75 5.47531 2.75H9.01078C9.32334 2.75 9.62309 2.91843 9.8441 3.21823C10.0651 3.51804 10.1893 3.92466 10.1893 4.34865V10.7433Z" fill="black"/>
<path d="M15.8465 14.7399V17.1379H17.6142V14.7399H23.5067V17.1379H25.2744V12.3419H15.8465V14.7399ZM24.6852 8.34528H26.4529V10.7433H24.6852V8.34528ZM14.668 8.34528H16.4357V10.7433H14.668V8.34528ZM23.5067 10.7433H17.6142V4.34865C17.6142 3.92466 17.7384 3.51804 17.9594 3.21823C18.1804 2.91843 18.4802 2.75 18.7927 2.75H22.3282C22.6408 2.75 22.9405 2.91843 23.1615 3.21823C23.3825 3.51804 23.5067 3.92466 23.5067 4.34865V10.7433Z" fill="black"/>
</g>
<defs>
<clipPath id="clip0_284_226">
<rect width="26.125" height="22" fill="white"/>
</clipPath>
</defs>
</svg>
