<svg width="26" height="26" viewBox="0 0 26 26" fill="none" xmlns="http://www.w3.org/2000/svg">
<path d="M5.41602 13C5.41602 13 8.1731 7.58331 12.9993 7.58331C17.8245 7.58331 20.5827 13 20.5827 13C20.5827 13 17.8245 18.4166 12.9993 18.4166C8.1731 18.4166 5.41602 13 5.41602 13Z" stroke="black" stroke-width="2" stroke-linecap="round" stroke-linejoin="round"/>
<path d="M22.75 18.4167V20.5833C22.75 21.158 22.5217 21.7091 22.1154 22.1154C21.7091 22.5217 21.158 22.75 20.5833 22.75H5.41667C4.84203 22.75 4.29093 22.5217 3.8846 22.1154C3.47827 21.7091 3.25 21.158 3.25 20.5833V18.4167M22.75 7.58333V5.41667C22.75 4.84203 22.5217 4.29093 22.1154 3.8846C21.7091 3.47827 21.158 3.25 20.5833 3.25H5.41667C4.84203 3.25 4.29093 3.47827 3.8846 3.8846C3.47827 4.29093 3.25 4.84203 3.25 5.41667V7.58333M13 14.0833C13.2873 14.0833 13.5629 13.9692 13.766 13.766C13.9692 13.5629 14.0833 13.2873 14.0833 13C14.0833 12.7127 13.9692 12.4371 13.766 12.234C13.5629 12.0308 13.2873 11.9167 13 11.9167C12.7127 11.9167 12.4371 12.0308 12.234 12.234C12.0308 12.4371 11.9167 12.7127 11.9167 13C11.9167 13.2873 12.0308 13.5629 12.234 13.766C12.4371 13.9692 12.7127 14.0833 13 14.0833Z" stroke="black" stroke-width="2" stroke-linecap="round" stroke-linejoin="round"/>
</svg>
