<svg width="20" height="21" viewBox="0 0 20 21" fill="none" xmlns="http://www.w3.org/2000/svg">
<g clip-path="url(#clip0_3501_16997)">
<path fill-rule="evenodd" clip-rule="evenodd" d="M9.98143 2.64313C9.38424 2.63234 8.79078 2.73943 8.23502 2.95826C7.67926 3.17709 7.17211 3.50337 6.74259 3.91843C6.31308 4.33348 5.96962 4.82916 5.73189 5.3771C5.49416 5.92505 5.36681 6.51449 5.35714 7.1117V13.3574C5.35714 13.7363 5.20663 14.0997 4.93872 14.3676C4.67081 14.6355 4.30745 14.786 3.92857 14.786H2.14286C1.57454 14.786 1.02949 14.5602 0.627628 14.1584C0.225765 13.7565 0 13.2114 0 12.6431L0 9.78598C0 9.21766 0.225765 8.67262 0.627628 8.27076C1.02949 7.86889 1.57454 7.64313 2.14286 7.64313H3.21429V7.08599C3.22732 6.20798 3.41319 5.34113 3.76128 4.53497C4.10936 3.7288 4.61285 2.9991 5.24298 2.38754C5.87311 1.77598 6.61755 1.29454 7.43376 0.97072C8.24998 0.6469 9.12199 0.48704 10 0.500271C10.878 0.48704 11.75 0.6469 12.5662 0.97072C13.3825 1.29454 14.1269 1.77598 14.757 2.38754C15.3872 2.9991 15.8906 3.7288 16.2387 4.53497C16.5868 5.34113 16.7727 6.20798 16.7857 7.08599V7.64313H17.8571C18.4255 7.64313 18.9705 7.86889 19.3724 8.27076C19.7742 8.67262 20 9.21766 20 9.78598V12.6431C20 13.2114 19.7742 13.7565 19.3724 14.1584C18.9705 14.5602 18.4255 14.786 17.8571 14.786H16.7857V15.5003C16.7859 16.4656 16.4306 17.3973 15.7877 18.1174C15.1448 18.8375 14.2592 19.2957 13.3 19.4046C13.1137 19.7371 12.8421 20.014 12.5131 20.2066C12.1842 20.3992 11.8098 20.5006 11.4286 20.5003H9.28571C8.71739 20.5003 8.17235 20.2745 7.77049 19.8726C7.36862 19.4708 7.14286 18.9257 7.14286 18.3574C7.14286 17.7891 7.36862 17.244 7.77049 16.8422C8.17235 16.4403 8.71739 16.2146 9.28571 16.2146H11.4286C12.2029 16.2146 12.8814 16.6246 13.2571 17.2403C13.6509 17.1498 14.0023 16.9284 14.254 16.6124C14.5057 16.2963 14.6428 15.9043 14.6429 15.5003V7.11027C14.6331 6.50998 14.5044 5.91759 14.2642 5.36735C14.0241 4.8171 13.6773 4.31991 13.2438 3.90451C12.8104 3.48912 12.2989 3.16376 11.7389 2.94725C11.1789 2.73075 10.5816 2.62738 9.98143 2.64313Z" fill="white"/>
</g>
<defs>
<clipPath id="clip0_3501_16997">
<rect width="20" height="20" fill="white" transform="translate(0 0.5)"/>
</clipPath>
</defs>
</svg>
