<svg width="22" height="23" viewBox="0 0 22 23" fill="none" xmlns="http://www.w3.org/2000/svg">
<path d="M13.255 14.499C13.341 13.7769 13.6094 13.0886 14.035 12.499H10.008V10.499H18.002C18.6915 10.5035 19.3724 10.6545 20 10.94V2.501C20 1.9703 19.7892 1.46134 19.4139 1.08608C19.0387 0.710819 18.5297 0.5 17.999 0.5H2.002C1.47121 0.5 0.962145 0.710787 0.586726 1.08602C0.211307 1.46125 0.00026538 1.97021 2.50024e-07 2.501V16.499C-0.000131189 16.7619 0.0515622 17.0223 0.152126 17.2653C0.252689 17.5082 0.40015 17.729 0.586079 17.9149C0.772008 18.1008 0.992759 18.2483 1.23571 18.3489C1.47867 18.4494 1.73906 18.5011 2.002 18.501H11.999V17.7C12.0049 17.2858 12.0961 16.8773 12.267 16.5H5.999V14.5L13.255 14.499ZM17.999 8.499H10.005V6.499H17.999V8.499ZM5.999 2.499H17.999V4.499H5.999V2.499ZM3.988 16.499H1.988V14.499H3.988V16.499ZM3.988 4.499H1.988V2.499H3.988V4.499ZM5.993 6.499H7.993V8.499H5.993V6.499ZM5.996 12.499V10.499H7.996V12.499H5.996ZM20.799 16.5V15C20.7209 14.3121 20.3923 13.677 19.8758 13.2159C19.3594 12.7549 18.6913 12.5 17.999 12.5C17.3067 12.5 16.6386 12.7549 16.1222 13.2159C15.6057 13.677 15.2771 14.3121 15.199 15V16.5C14.8877 16.5211 14.5945 16.6542 14.3739 16.8749C14.1532 17.0955 14.0201 17.3887 13.999 17.7V21.2C14.0003 21.5275 14.1243 21.8426 14.3464 22.0832C14.5685 22.3238 14.8727 22.4725 15.199 22.5H20.699C21.0265 22.4987 21.3415 22.3747 21.5822 22.1526C21.8228 21.9305 21.9715 21.6263 21.999 21.3V17.8C21.9977 17.4725 21.8737 17.1575 21.6516 16.9168C21.4295 16.6762 21.1253 16.5275 20.799 16.5ZM19.499 16.5H16.499V15C16.5083 14.8148 16.555 14.6334 16.6363 14.4667C16.7175 14.3 16.8316 14.1515 16.9717 14.0301C17.1119 13.9086 17.2751 13.8168 17.4516 13.7601C17.6282 13.7033 17.8144 13.6829 17.999 13.7C18.1836 13.6829 18.3698 13.7033 18.5464 13.7601C18.7229 13.8168 18.8861 13.9086 19.0263 14.0301C19.1664 14.1515 19.2805 14.3 19.3617 14.4667C19.443 14.6334 19.4897 14.8148 19.499 15V16.5Z" fill="white"/>
</svg>
